<svg xmlns="http://www.w3.org/2000/svg" class="hide"><symbol id="camera" viewBox="0 0 22 17"><title>camera</title><path d="M20.6 15.6a21.4 21.4 0 0 1-4.1-2v.6a2.8 2.8 0 0 1-2.7 2.8H4.2a2.8 2.8 0 0 1-2.7-2.8v-3.3A1.4 1.4 0 0 1 .1 9.5V5.7a1.4 1.4 0 0 1 1.4-1.4V2.8A2.8 2.8 0 0 1 4.1 0h9.6a2.8 2.8 0 0 1 2.8 2.8v.6a20.3 20.3 0 0 1 4.1-2A1.4 1.4 0 0 1 22 2.8v11.4a1.4 1.4 0 0 1-1.4 1.4zm-6.9-4.2V4.3a1.4 1.4 0 0 0-1.4-1.4H5.4A1.4 1.4 0 0 0 4 4.3V5a2 2 0 0 0-2 2v1a2 2 0 0 0 2 2h.1v2.8a1.4 1.4 0 0 0 1.4 1.4h6.9a1.4 1.4 0 0 0 1.4-1.4v-1.5zm5.5-5.8l-2.7 1.1v3.6l2.8 1.1V5.6z"/><path d="M5.5 6A1.5 1.5 0 1 1 4 7.5 1.5 1.5 0 0 1 5.5 6z"/></symbol><symbol id="comment" viewBox="0 0 19 21"><title>comment</title><path d="M8.7 19.5l9 1.5-1.7-4.1a9.9 9.9 0 0 0 3-7.1 9.5 9.5 0 1 0-19 0 9.7 9.7 0 0 0 8.7 9.7zm.8-16.9a7.1 7.1 0 0 1 7 7.2 7.2 7.2 0 0 1-2.2 5.2l-1.4 1.3 1 2L9.1 17h-.2a7 7 0 0 1-6.4-7.1 7.1 7.1 0 0 1 7-7.3z"/><path d="M11.7 13.1H7.3a1.3 1.3 0 0 1-1.2-1.2 1.3 1.3 0 0 1 1.3-1.2h4.4a1.3 1.3 0 0 1 1.3 1.3 1.3 1.3 0 0 1-1.4 1.1zM10 8.8H7.3a1.3 1.3 0 0 1-1.2-1.2 1.3 1.3 0 0 1 1.3-1.2H10a1.3 1.3 0 0 1 1.3 1.2A1.3 1.3 0 0 1 10 8.8z"/></symbol><symbol id="heart" viewBox="0 0 15 13"><title>heart</title><path d="M13.7 7.2L7.5 13 1.3 7.2a4 4 0 0 1 0-6 136.7 136.7 0 0 1 12.4 0 4 4 0 0 1 0 6zm-1.4-4.6a2.5 2.5 0 0 0-1.7-.7 2.6 2.6 0 0 0-1.7.6L7.6 3.8 6.3 2.6A2.6 2.6 0 0 0 4.6 2a2.5 2.5 0 0 0-1.7.7 2.2 2.2 0 0 0 0 3.3l4.8 4.4L12.5 6a2.2 2.2 0 0 0-.2-3.4z"/></symbol><symbol id="in" viewBox="0 0 20 18.2"><title>in</title><path d="M15.4 15.5l-.8-1.9A3.5 3.5 0 0 0 18 10V5.5A3.5 3.5 0 0 0 14.5 2H5.6a3.5 3.5 0 0 0-3.5 3.5V10a3.5 3.5 0 0 0 3.1 3.5l-1 1.9a5 5 0 0 1-4.1-4.9V5a5 5 0 0 1 5-5h10a5 5 0 0 1 5 5v5.5a5 5 0 0 1-4.7 5z"/><path d="M14.5 18.2H5.4L10 11z"/></symbol><symbol id="out" viewBox="0 0 18 17"><title>out</title><path d="M2.3 3.4v10.2a1.1 1.1 0 0 0 1.1 1.1h11.3a1.1 1.1 0 0 0 1.1-1.1v-3.4H18v4.5a2.3 2.3 0 0 1-2.2 2.3H2.3a2.3 2.3 0 0 1-2.2-2.3V2.3A2.3 2.3 0 0 1 2.3 0h5.6v2.3H3.4a1.1 1.1 0 0 0-1.1 1.1z"/><path d="M17.7 5.3l-3.4 3.4a1.1 1.1 0 0 1-1.6 0 1.1 1.1 0 0 1 0-1.6l1.4-1.4a7.3 7.3 0 0 0-7.4 4.9 1.1 1.1 0 0 1-1.1.8h-.4a1.1 1.1 0 0 1-.7-1.4 9.5 9.5 0 0 1 9.7-6.4l-1.5-1.5a1.2 1.2 0 0 1 0-1.6 1.1 1.1 0 0 1 1.6 0l3.4 3.4a1.2 1.2 0 0 1 .3.8 1.1 1.1 0 0 1-.3.6z"/></symbol><symbol id="pencil" viewBox="0 0 12 17"><title>pencil</title><path d="M11.7 4.7l-5.3 9.1L4.2 15H9a1 1 0 0 1 0 2H.4v-.2a1 1 0 0 1-.4-.7 1 1 0 0 1 .3-.7L0 10.2l5.3-9.1A2.1 2.1 0 0 1 8.2.3l2.7 1.6a2.1 2.1 0 0 1 .8 2.8zm-2.9.6L6.2 3.8l-3.8 6.5v3.2l2.7-1.6 4.2-7.3a1 1 0 0 0 .1-.5z"/></symbol><symbol id="play" viewBox="0 0 20 20"><title>play</title><path d="M10 20a10 10 0 1 1 10-10 10 10 0 0 1-10 10zm0-17.5a7.5 7.5 0 1 0 7.5 7.5A7.5 7.5 0 0 0 10 2.5z"/><path d="M13.5 10.4l-5.3 3.2a.403.403 0 0 1-.7-.4V6.8a.403.403 0 0 1 .7-.4l5.3 3.2a.4.4 0 0 1 0 .8z"/></symbol><symbol id="rcomment" viewBox="0 0 14 14"><title>rcomment</title><path d="M14 11.4l-4.2-.9a5.2 5.2 0 0 1-4.5 2.7h-.9l-4.3 1 .8-3.3a5.2 5.2 0 0 1-.8-2.8A5.3 5.3 0 0 1 4.3 3a5.222 5.222 0 1 1 9 5.3zM1.8 7.9a3.4 3.4 0 0 0 .6 1.9l.4.6-.3 1.3 1.9-.4h.9a3.5 3.5 0 1 0-3.5-3.4zm7-6.1a3.5 3.5 0 0 0-2.4 1 5.3 5.3 0 0 1 4.2 5.1 5.5 5.5 0 0 1-.1.9l1.2.3-.3-1.3.4-.6a3.5 3.5 0 0 0-3-5.4zm1.4 7.9z"/></symbol><symbol id="star" viewBox="0 0 15 15"><title>star</title><path d="M7.6.5s.8-.1 1.5 1.3l1.2 2.3 2.8.6c1.3.3 1.4 1.1 1.4 1.1a2.4 2.4 0 0 1-.8 1.8l-1.7 2 .4 3.2c.2 1.4-.3 1.7-.3 1.7a2.8 2.8 0 0 1-2.1-.4l-2.3-1.2-2.8 1.4a1.7 1.7 0 0 1-1.8 0s-.3-.1-.1-1.4l.4-3.4-1.7-2a3.5 3.5 0 0 1-1-1.9 1.6 1.6 0 0 1 1.4-.9l3-.6 1.1-2.2C6.9.5 7.8.5 7.8.5" stroke="#d8232a" stroke-miterlimit="10"/></symbol><symbol id="toy" viewBox="0 0 22 22"><title>toy</title><path d="M17 22H5a5 5 0 0 1-5-5v-5.3a5 5 0 0 1 5-5h3.8V2.2a1 1 0 0 1 1-1h3.4V1a1 1 0 0 1 1-1h.2a1 1 0 0 1 1 1v1.4a1 1 0 0 1-1 1H11v3.3h6a5 5 0 0 1 5 5V17a5 5 0 0 1-5 5zm2.8-9.6a3.5 3.5 0 0 0-3.5-3.5H5.7a3.5 3.5 0 0 0-3.5 3.5v3.9a3.5 3.5 0 0 0 3.5 3.5h10.6a3.5 3.5 0 0 0 3.5-3.5v-3.9z"/><path d="M9.2 15.3h-.8v.8a.8.8 0 0 1-.8.8.8.8 0 0 1-.8-.8v-.8H6a.8.8 0 0 1-.8-.8.8.8 0 0 1 .8-.8h.8v-.9a.8.8 0 0 1 .8-.8.8.8 0 0 1 .8.8v.8h.8a.8.8 0 0 1 .8.8.8.8 0 0 1-.8.9zM14.5 13a1.5 1.5 0 1 1-1.5 1.5 1.5 1.5 0 0 1 1.5-1.5z"/></symbol><symbol id="upload" viewBox="0 0 14 14"><title>upload</title><path d="M12.3 14H1.8a1.8 1.8 0 0 1-1.7-1.9V9.3a.9.9 0 1 1 1.8 0v1.9a.9.9 0 0 0 .9.9h8.8a.9.9 0 0 0 .9-.9V9.3a.9.9 0 1 1 1.8 0v2.8a1.8 1.8 0 0 1-2 1.9zM7.7 9.9a.9.9 0 0 1-.7.4.8.8 0 0 1-.6-.3L3.8 7.2a1 1 0 0 1 0-1.3.8.8 0 0 1 1.2 0l1.2 1.3V1A.9.9 0 1 1 8 1v6l1.1-1.2a.8.8 0 0 1 1.2 0 .9.9 0 0 1 0 1.3z"/></symbol></svg>